<svg width="32" height="32" viewBox="0 0 32 32" fill="none" xmlns="http://www.w3.org/2000/svg">
<path d="M15.9993 2.66406C8.65268 2.66406 2.66602 8.65073 2.66602 15.9974C2.66602 23.3441 8.65268 29.3307 15.9993 29.3307C23.346 29.3307 29.3327 23.3441 29.3327 15.9974C29.3327 8.65073 23.346 2.66406 15.9993 2.66406ZM20.4793 19.0641C20.866 19.4507 20.866 20.0907 20.4793 20.4774C20.2793 20.6774 20.026 20.7707 19.7727 20.7707C19.5193 20.7707 19.266 20.6774 19.066 20.4774L15.9993 17.4107L12.9327 20.4774C12.7327 20.6774 12.4793 20.7707 12.226 20.7707C11.9727 20.7707 11.7193 20.6774 11.5193 20.4774C11.1327 20.0907 11.1327 19.4507 11.5193 19.0641L14.586 15.9974L11.5193 12.9307C11.1327 12.5441 11.1327 11.9041 11.5193 11.5174C11.906 11.1307 12.546 11.1307 12.9327 11.5174L15.9993 14.5841L19.066 11.5174C19.4527 11.1307 20.0927 11.1307 20.4793 11.5174C20.866 11.9041 20.866 12.5441 20.4793 12.9307L17.4127 15.9974L20.4793 19.0641Z" fill="#D5D5D5"/>
</svg>
