<svg width="32" height="32" viewBox="0 0 32 32" fill="none" xmlns="http://www.w3.org/2000/svg">
<path d="M15.9993 2.66406C8.65268 2.66406 2.66602 8.65073 2.66602 15.9974C2.66602 23.3441 8.65268 29.3307 15.9993 29.3307C23.346 29.3307 29.3327 23.3441 29.3327 15.9974C29.3327 8.65073 23.346 2.66406 15.9993 2.66406ZM22.3727 12.9307L14.8127 20.4907C14.626 20.6774 14.3727 20.7841 14.106 20.7841C13.8393 20.7841 13.586 20.6774 13.3993 20.4907L9.62602 16.7174C9.23935 16.3307 9.23935 15.6907 9.62602 15.3041C10.0127 14.9174 10.6527 14.9174 11.0393 15.3041L14.106 18.3707L20.9593 11.5174C21.346 11.1307 21.986 11.1307 22.3727 11.5174C22.7594 11.9041 22.7594 12.5307 22.3727 12.9307Z" fill="#D5D5D5"/>
</svg>
