<svg width="32" height="32" viewBox="0 0 32 32" fill="none" xmlns="http://www.w3.org/2000/svg">
<path d="M23.1853 20.8933L17.7987 16H14.1853L8.79867 20.8933C7.292 22.2533 6.79867 24.3467 7.532 26.24C8.26534 28.12 10.052 29.3333 12.0653 29.3333H19.9187C21.9453 29.3333 23.7187 28.12 24.452 26.24C25.1853 24.3467 24.692 22.2533 23.1853 20.8933ZM18.4253 24.1867H13.572C13.0653 24.1867 12.6653 23.7733 12.6653 23.28C12.6653 22.7867 13.0787 22.3733 13.572 22.3733H18.4253C18.932 22.3733 19.332 22.7867 19.332 23.28C19.332 23.7733 18.9187 24.1867 18.4253 24.1867Z" fill="#D5D5D5"/>
<path d="M24.4682 5.7574C23.7349 3.8774 21.9482 2.66406 19.9348 2.66406H12.0682C10.0548 2.66406 8.26818 3.8774 7.53485 5.7574C6.81485 7.65073 7.30818 9.74406 8.81485 11.1041L14.2015 15.9974H17.8148L23.2015 11.1041C24.6948 9.74406 25.1882 7.65073 24.4682 5.7574ZM18.4282 9.6374H13.5748C13.0682 9.6374 12.6682 9.22406 12.6682 8.73073C12.6682 8.2374 13.0815 7.82406 13.5748 7.82406H18.4282C18.9348 7.82406 19.3348 8.2374 19.3348 8.73073C19.3348 9.22406 18.9215 9.6374 18.4282 9.6374Z" fill="#D5D5D5"/>
</svg>
